<svg width="30.000000" height="30.000000" viewBox="0 0 30 30" fill="none" xmlns="http://www.w3.org/2000/svg" xmlns:xlink="http://www.w3.org/1999/xlink">
	<desc>
			Created with Pixso.
	</desc>
	<defs>
		<clipPath id="clip47_4320">
			<rect id="Frame" rx="0.000000" width="29.000000" height="29.000000" transform="translate(0.500000 0.500000)" fill="white" fill-opacity="0"/>
		</clipPath>
	</defs>
	<rect id="Frame" rx="0.000000" width="29.000000" height="29.000000" transform="translate(0.500000 0.500000)" fill="#FFFFFF" fill-opacity="0"/>
	<g clip-path="url(#clip47_4320)">
		<path id="Vector" d="M15 18.7C14.51 18.7 14.04 18.6 13.59 18.42L11.27 21.61C12.37 22.23 13.64 22.59 15 22.59C16.35 22.59 17.62 22.23 18.72 21.61L16.4 18.42C15.95 18.6 15.48 18.7 15 18.7ZM11.29 15C11.29 14.9 11.3 14.81 11.3 14.72L7.55 13.5C7.45 13.99 7.4 14.49 7.4 15C7.4 17.2 8.35 19.19 9.85 20.58L12.17 17.39C11.62 16.74 11.29 15.91 11.29 15ZM14.12 11.4L14.12 7.45C11.44 7.76 9.18 9.47 8.09 11.83L11.85 13.05C12.35 12.24 13.16 11.63 14.12 11.4Z" fill="#3A3A3A" fill-opacity="1.000000" fill-rule="nonzero"/>
		<path id="Vector" d="M16.94 15C16.94 16.07 16.07 16.94 15 16.94C13.92 16.94 13.05 16.07 13.05 15C13.05 13.92 13.92 13.05 15 13.05C16.07 13.05 16.94 13.92 16.94 15Z" fill="#3A3A3A" fill-opacity="1.000000" fill-rule="evenodd"/>
		<path id="Vector" d="M18.7 15C18.7 15.91 18.37 16.74 17.82 17.39L20.14 20.58C21.64 19.19 22.59 17.2 22.59 15C22.59 14.48 22.54 13.98 22.44 13.5L18.69 14.72C18.69 14.81 18.7 14.9 18.7 15Z" fill="#3A3A3A" fill-opacity="1.000000" fill-rule="nonzero"/>
		<path id="Vector" d="M29.57 15.87L29.08 15.87C28.61 15.87 28.2 15.51 28.18 15.04C28.15 14.53 28.55 14.12 29.05 14.12L29.57 14.12C29.82 14.12 30.02 13.9 29.99 13.65C29.96 13.24 29.9 12.82 29.83 12.41C29.79 12.16 29.54 12.01 29.3 12.07L28.83 12.2C28.37 12.32 27.88 12.08 27.74 11.62C27.58 11.14 27.87 10.64 28.35 10.51L28.84 10.38C29.08 10.31 29.22 10.05 29.13 9.81C28.99 9.42 28.83 9.04 28.65 8.66C28.55 8.43 28.27 8.35 28.05 8.47L27.63 8.71C27.22 8.95 26.69 8.84 26.43 8.44C26.16 8.02 26.3 7.45 26.73 7.2L27.17 6.95C27.39 6.83 27.45 6.54 27.31 6.33C27.07 5.99 26.81 5.66 26.55 5.34C26.38 5.15 26.09 5.14 25.91 5.32L25.58 5.66C25.24 5.99 24.7 6.02 24.35 5.7C23.97 5.36 23.96 4.79 24.31 4.43L24.67 4.08C24.85 3.9 24.84 3.61 24.65 3.44C24.33 3.18 24 2.92 23.66 2.68C23.45 2.54 23.16 2.6 23.04 2.82L22.8 3.24C22.56 3.65 22.04 3.82 21.62 3.6C21.17 3.37 21.01 2.81 21.26 2.38L21.52 1.94C21.64 1.72 21.56 1.44 21.33 1.34C20.95 1.16 20.57 1 20.18 0.86C19.94 0.77 19.68 0.91 19.62 1.15L19.49 1.62C19.37 2.08 18.91 2.38 18.45 2.27C17.95 2.17 17.66 1.67 17.79 1.19L17.92 0.69C17.98 0.45 17.83 0.2 17.58 0.16C17.17 0.09 16.75 0.03 16.34 0C16.09 -0.03 15.87 0.17 15.87 0.42L15.87 0.91C15.87 1.38 15.51 1.79 15.04 1.81C14.53 1.84 14.12 1.44 14.12 0.94L14.12 0.42C14.12 0.17 13.9 -0.03 13.65 0C13.24 0.03 12.82 0.09 12.41 0.16C12.16 0.2 12.01 0.45 12.07 0.69L12.2 1.16C12.32 1.62 12.08 2.11 11.62 2.25C11.14 2.41 10.64 2.13 10.51 1.64L10.37 1.15C10.31 0.91 10.05 0.77 9.81 0.86C9.42 1 9.04 1.16 8.66 1.34C8.43 1.44 8.35 1.72 8.47 1.94L8.71 2.36C8.95 2.77 8.84 3.3 8.44 3.56C8.02 3.83 7.45 3.69 7.2 3.26L6.95 2.82C6.83 2.6 6.54 2.54 6.33 2.68C5.99 2.92 5.66 3.18 5.34 3.44C5.15 3.61 5.14 3.9 5.32 4.08L5.66 4.42C5.99 4.75 6.02 5.29 5.7 5.64C5.37 6.02 4.79 6.03 4.43 5.68L4.08 5.32C3.9 5.14 3.61 5.15 3.45 5.34C3.18 5.66 2.92 5.99 2.68 6.33C2.54 6.54 2.6 6.83 2.82 6.95L3.24 7.19C3.65 7.43 3.82 7.95 3.6 8.37C3.37 8.82 2.81 8.98 2.38 8.73L1.94 8.47C1.72 8.35 1.44 8.43 1.34 8.66C1.16 9.04 1 9.42 0.86 9.81C0.77 10.05 0.91 10.31 1.15 10.37L1.62 10.5C2.08 10.62 2.37 11.08 2.27 11.54C2.17 12.04 1.67 12.33 1.19 12.21L0.69 12.07C0.45 12.01 0.2 12.16 0.16 12.41C0.09 12.82 0.03 13.24 0 13.65C-0.03 13.9 0.17 14.12 0.42 14.12L0.91 14.12C1.38 14.12 1.79 14.48 1.81 14.95C1.84 15.46 1.44 15.87 0.94 15.87L0.42 15.87C0.17 15.87 -0.03 16.09 0 16.34C0.03 16.75 0.09 17.17 0.16 17.58C0.2 17.83 0.45 17.98 0.69 17.92L1.16 17.79C1.62 17.67 2.11 17.91 2.25 18.37C2.41 18.85 2.13 19.35 1.64 19.48L1.15 19.62C0.91 19.68 0.77 19.94 0.86 20.18C1 20.57 1.16 20.95 1.34 21.33C1.44 21.56 1.72 21.64 1.94 21.52L2.36 21.28C2.77 21.04 3.3 21.15 3.56 21.55C3.83 21.97 3.69 22.54 3.26 22.79L2.82 23.04C2.6 23.16 2.54 23.45 2.68 23.66C2.92 24 3.18 24.33 3.45 24.65C3.61 24.84 3.9 24.85 4.08 24.67L4.41 24.33C4.75 24 5.29 23.97 5.64 24.29C6.02 24.63 6.03 25.2 5.68 25.56L5.32 25.91C5.14 26.09 5.15 26.38 5.34 26.55C5.66 26.81 5.99 27.07 6.33 27.31C6.54 27.45 6.83 27.39 6.95 27.17L7.19 26.75C7.43 26.34 7.95 26.17 8.37 26.39C8.82 26.62 8.98 27.18 8.73 27.61L8.47 28.05C8.35 28.27 8.43 28.55 8.66 28.65C9.04 28.83 9.42 28.99 9.81 29.13C10.05 29.22 10.31 29.08 10.37 28.84L10.5 28.37C10.62 27.91 11.08 27.61 11.54 27.72C12.04 27.82 12.33 28.32 12.21 28.8L12.07 29.3C12.01 29.54 12.16 29.79 12.41 29.83C12.82 29.9 13.24 29.96 13.65 29.99C13.9 30.02 14.12 29.82 14.12 29.57L14.12 29.08C14.12 28.61 14.48 28.2 14.95 28.18C15.46 28.15 15.87 28.55 15.87 29.05L15.87 29.57C15.87 29.82 16.09 30.02 16.34 29.99C16.75 29.96 17.17 29.9 17.58 29.83C17.83 29.79 17.98 29.54 17.92 29.3L17.79 28.83C17.67 28.37 17.91 27.88 18.37 27.74C18.85 27.58 19.35 27.86 19.48 28.35L19.62 28.84C19.68 29.08 19.94 29.22 20.18 29.13C20.57 28.99 20.95 28.83 21.33 28.65C21.56 28.55 21.64 28.27 21.52 28.05L21.28 27.63C21.04 27.22 21.15 26.69 21.55 26.43C21.97 26.16 22.54 26.3 22.79 26.73L23.04 27.17C23.16 27.39 23.45 27.45 23.66 27.31C24 27.07 24.33 26.81 24.65 26.55C24.84 26.38 24.85 26.09 24.67 25.91L24.33 25.58C24 25.24 23.97 24.7 24.29 24.35C24.62 23.97 25.2 23.96 25.56 24.31L25.91 24.67C26.09 24.85 26.38 24.84 26.55 24.65C26.81 24.33 27.07 24 27.31 23.66C27.45 23.45 27.39 23.16 27.17 23.04L26.75 22.8C26.34 22.56 26.17 22.04 26.39 21.62C26.62 21.17 27.18 21.01 27.61 21.26L28.05 21.52C28.27 21.64 28.55 21.56 28.65 21.33C28.83 20.95 28.99 20.57 29.13 20.18C29.22 19.94 29.08 19.68 28.84 19.62L28.35 19.48C27.87 19.35 27.58 18.85 27.74 18.37C27.88 17.91 28.37 17.67 28.83 17.79L29.75 18.04C29.86 17.48 29.94 16.91 29.99 16.34C30.02 16.09 29.82 15.87 29.57 15.87ZM15 24.35C9.84 24.35 5.64 20.15 5.64 15C5.64 9.84 9.84 5.64 15 5.64C20.15 5.64 24.35 9.84 24.35 15C24.35 20.15 20.15 24.35 15 24.35Z" fill="#3A3A3A" fill-opacity="1.000000" fill-rule="nonzero"/>
		<path id="Vector" d="M15.87 7.45L15.87 11.4C16.83 11.63 17.64 12.24 18.14 13.05L21.9 11.83C20.81 9.47 18.55 7.76 15.87 7.45Z" fill="#3A3A3A" fill-opacity="1.000000" fill-rule="nonzero"/>
	</g>
</svg>
