<svg width="35.000000" height="35.000000" viewBox="0 0 35 35" fill="none" xmlns="http://www.w3.org/2000/svg" xmlns:xlink="http://www.w3.org/1999/xlink">
	<desc>
			Created with Pixso.
	</desc>
	<defs/>
	<rect id="хит" rx="0.000000" width="34.000000" height="34.000000" transform="translate(0.500000 0.500000)" fill="#FFFFFF" fill-opacity="0"/>
	<circle id="Ellipse 70" cx="17.500000" cy="17.500000" r="17.500000" fill="#E9E9E9" fill-opacity="1.000000"/>
	<path id="Vector" d="M6.5 18.64L6.5 24.69C6.5 25.73 7.32 26.58 8.33 26.58L10.53 26.58C10.94 26.58 11.32 26.44 11.63 26.2L11.63 16.75L8.33 16.75C7.32 16.75 6.5 17.59 6.5 18.64Z" stroke="#AFAFAF" stroke-opacity="1.000000" stroke-width="1.400000"/>
	<path id="Vector" d="M27.91 17.59C28.33 17.14 28.54 16.53 28.48 15.89C28.38 14.76 27.36 13.87 26.16 13.87L20.66 13.87C20.93 13.04 21.37 11.53 21.37 10.31C21.37 8.38 19.72 6.75 18.69 6.75C17.77 6.75 17.11 7.27 17.08 7.29C16.97 7.37 16.91 7.5 16.91 7.64L16.91 10.66L14.35 16.22L14.24 16.27L14.24 25.82C14.96 26.16 15.88 26.34 16.47 26.34L24.64 26.34C25.61 26.34 26.46 25.69 26.66 24.79C26.76 24.32 26.71 23.86 26.5 23.45C27.16 23.12 27.6 22.44 27.6 21.67C27.6 21.35 27.53 21.05 27.39 20.78C28.05 20.45 28.49 19.77 28.49 18.99C28.49 18.46 28.28 17.96 27.91 17.59Z" stroke="#AFAFAF" stroke-opacity="1.000000" stroke-width="1.400000"/>
</svg>
