<svg width="28.000000" height="28.000000" viewBox="0 0 28 28" fill="none" xmlns="http://www.w3.org/2000/svg" xmlns:xlink="http://www.w3.org/1999/xlink">
	<desc>
			Created with Pixso.
	</desc>
	<defs/>
	<rect id="heart" rx="0.000000" width="27.000000" height="27.000000" transform="translate(0.500000 0.500000)" fill="#FFFFFF" fill-opacity="0"/>
	<path id="Vector" d="M8.91 5L8.91 5Q10.18 5 11.24 5.46Q12.16 5.87 12.93 6.63L14.34 8.04L15.75 6.63Q16.52 5.87 17.44 5.46Q18.5 5 19.77 5Q20.62 5 21.34 5.29Q22.27 5.67 22.99 6.53Q23.42 7.04 23.71 7.62Q24.34 8.85 24.34 10.41Q24.34 11.79 23.92 13.04Q23.33 14.79 21.91 16.27Q20.22 18.03 14.82 21.42Q14.56 21.58 14.34 21.72Q14.11 21.58 13.86 21.42Q8.46 18.03 6.77 16.27Q5.35 14.79 4.76 13.04Q4.34 11.79 4.34 10.41Q4.34 8.85 4.97 7.62Q5.26 7.04 5.69 6.53Q6.41 5.67 7.34 5.29Q8.06 5 8.91 5ZM8.91 3L8.91 3C11.43 3 13.5 4.38 14.34 5.21C15.18 4.38 17.25 3 19.77 3C23.68 3 26.34 6.52 26.34 10.41C26.34 17.07 21.07 19.81 14.34 24.09C7.61 19.81 2.34 17.07 2.34 10.41C2.34 6.52 5 3 8.91 3Z" fill="#3A3A3A" fill-opacity="1.000000" fill-rule="evenodd"/>
</svg>
