<svg width="35.000000" height="35.000000" viewBox="0 0 35 35" fill="none" xmlns="http://www.w3.org/2000/svg" xmlns:xlink="http://www.w3.org/1999/xlink">
	<desc>
			Created with Pixso.
	</desc>
	<defs/>
	<rect id="подарок" rx="0.000000" width="34.000000" height="34.000000" transform="translate(0.500000 0.500000)" fill="#FFFFFF" fill-opacity="0"/>
	<circle id="Ellipse 70" cx="17.500000" cy="17.500000" r="17.500000" fill="#E9E9E9" fill-opacity="1.000000"/>
	<path id="Vector" d="M8.82 17.5C8.44 17.5 8.07 17.34 7.8 17.07C7.53 16.8 7.38 16.43 7.38 16.05L7.38 14.6C7.38 14.22 7.53 13.85 7.8 13.58C8.07 13.31 8.44 13.16 8.82 13.16L26.17 13.16C26.55 13.16 26.92 13.31 27.19 13.58C27.46 13.85 27.62 14.22 27.62 14.6L27.62 16.05C27.62 16.43 27.46 16.8 27.19 17.07C26.92 17.34 26.55 17.5 26.17 17.5L8.82 17.5ZM8.82 17.5L26.17 17.5M26.17 17.5L26.17 24.72C26.17 25.49 25.87 26.23 25.32 26.77C24.78 27.31 24.05 27.62 23.28 27.62L11.71 27.62C10.95 27.62 10.21 27.31 9.67 26.77C9.13 26.23 8.82 25.49 8.82 24.72L8.82 17.5M17.5 27.62L17.5 13.16L17.5 11.71C17.5 10.56 17.04 9.46 16.23 8.65C15.41 7.83 14.31 7.38 13.16 7.38C12.39 7.38 11.66 7.68 11.11 8.22C10.57 8.77 10.27 9.5 10.27 10.27L10.27 10.68C10.27 11.34 10.53 11.97 10.99 12.43C11.22 12.66 11.5 12.85 11.8 12.97C12.1 13.09 12.42 13.16 12.75 13.16L17.5 13.16M17.5 11.71L17.5 13.16M17.5 13.16L22.25 13.16C23.62 13.16 24.72 12.05 24.72 10.68L24.72 10.27C24.72 9.5 24.42 8.77 23.88 8.22C23.33 7.68 22.6 7.38 21.83 7.38C20.68 7.38 19.58 7.83 18.77 8.65C17.95 9.46 17.5 10.56 17.5 11.71" stroke="#AFAFAF" stroke-opacity="1.000000" stroke-width="1.400000"/>
</svg>
