<svg width="30.000000" height="30.000000" viewBox="0 0 30 30" fill="none" xmlns="http://www.w3.org/2000/svg" xmlns:xlink="http://www.w3.org/1999/xlink">
	<desc>
			Created with Pixso.
	</desc>
	<defs/>
	<path id="Vector" d="M9.12 1.19L8.84 3.51C8.83 3.65 8.75 3.78 8.64 3.87C8.53 3.96 8.39 4 8.25 3.98C8.11 3.96 7.98 3.89 7.89 3.78C7.8 3.67 7.76 3.52 7.78 3.38L7.98 1.74C6.03 2.77 4.33 4.23 3 5.99L3.91 8.13C3.96 8.26 3.96 8.4 3.9 8.53C3.85 8.65 3.75 8.76 3.62 8.81C3.49 8.86 3.35 8.87 3.22 8.82C3.09 8.77 2.99 8.67 2.93 8.55L2.28 7.04C1.11 8.91 0.36 11.01 0.1 13.21L1.95 14.59C2.06 14.68 2.14 14.81 2.16 14.95C2.18 15.09 2.14 15.23 2.06 15.34C1.97 15.46 1.85 15.53 1.7 15.55C1.56 15.57 1.42 15.54 1.31 15.45L0 14.47C-0.07 16.68 0.33 18.87 1.2 20.9L3.48 21.17C3.78 21.21 3.99 21.48 3.95 21.77C3.93 21.91 3.86 22.04 3.75 22.13C3.64 22.21 3.5 22.25 3.36 22.24L1.75 22.04C2.79 23.99 4.24 25.68 6 27L8.1 26.1C8.23 26.06 8.37 26.06 8.5 26.11C8.63 26.17 8.73 26.27 8.78 26.4C8.84 26.52 8.84 26.67 8.79 26.79C8.74 26.92 8.65 27.03 8.52 27.09L7.05 27.72C8.91 28.89 11.02 29.63 13.2 29.89L14.57 28.07C14.61 28.01 14.66 27.96 14.72 27.93C14.78 27.89 14.85 27.87 14.92 27.86C14.99 27.85 15.06 27.85 15.13 27.87C15.2 27.89 15.26 27.92 15.32 27.96C15.37 28 15.42 28.05 15.46 28.11C15.49 28.17 15.52 28.24 15.53 28.31C15.54 28.38 15.53 28.45 15.51 28.52C15.5 28.59 15.47 28.65 15.42 28.71L14.47 29.99C16.66 30.07 18.85 29.66 20.87 28.8L21.15 26.53C21.16 26.39 21.24 26.26 21.35 26.18C21.46 26.09 21.6 26.05 21.74 26.06C21.88 26.08 22.01 26.15 22.1 26.27C22.19 26.38 22.23 26.52 22.21 26.66L22.02 28.25C23.96 27.22 25.65 25.77 26.97 24.02L26.08 21.91C26.03 21.79 26.03 21.64 26.09 21.52C26.14 21.39 26.24 21.29 26.37 21.23C26.5 21.18 26.64 21.18 26.77 21.22C26.9 21.27 27 21.37 27.06 21.49L27.7 22.97C28.87 21.11 29.62 19.02 29.88 16.83L28.04 15.45C27.98 15.41 27.94 15.36 27.9 15.29C27.86 15.23 27.84 15.17 27.83 15.1C27.82 15.03 27.82 14.96 27.84 14.89C27.86 14.82 27.89 14.76 27.93 14.7C27.97 14.64 28.03 14.6 28.09 14.56C28.15 14.52 28.21 14.5 28.28 14.49C28.35 14.48 28.42 14.49 28.49 14.5C28.56 14.52 28.62 14.55 28.68 14.59L29.98 15.57C30.07 13.37 29.67 11.18 28.81 9.15L26.51 8.87C26.36 8.85 26.24 8.78 26.15 8.67C26.06 8.56 26.02 8.42 26.04 8.28C26.05 8.13 26.13 8.01 26.24 7.92C26.35 7.83 26.49 7.79 26.63 7.81L28.27 8C27.24 6.05 25.79 4.35 24.03 3.02L21.89 3.94C21.76 3.99 21.61 3.99 21.48 3.94C21.35 3.89 21.25 3.79 21.19 3.66C21.13 3.53 21.13 3.38 21.18 3.25C21.24 3.12 21.34 3.01 21.47 2.95L22.99 2.3C21.12 1.12 19.02 0.37 16.83 0.11L15.42 1.98C15.34 2.09 15.21 2.17 15.07 2.19C14.93 2.21 14.79 2.17 14.67 2.08C14.56 2 14.48 1.87 14.46 1.73C14.44 1.59 14.48 1.45 14.57 1.33L15.56 0.01C13.36 -0.08 11.16 0.32 9.12 1.19ZM15 5.35C9.67 5.35 5.35 9.67 5.35 15C5.35 20.32 9.67 24.64 15 24.64C20.32 24.64 24.64 20.32 24.64 15C24.64 9.67 20.32 5.35 15 5.35Z" fill="#BD0808" fill-opacity="1.000000" fill-rule="evenodd"/>
	<path id="Vector" d="M11.6 21.68C12.62 22.2 13.77 22.49 15 22.49C16.22 22.49 17.37 22.2 18.39 21.68C17.56 20.25 16.43 19.09 15 18.21C13.56 19.09 12.43 20.25 11.6 21.68ZM22.41 13.84C20.78 14.18 19.33 14.9 18.05 15.99C18.44 17.62 19.2 19.06 20.31 20.29C21 19.59 21.55 18.77 21.93 17.86C22.3 16.95 22.5 15.98 22.49 14.99C22.49 14.6 22.46 14.21 22.41 13.84ZM7.58 13.84C7.53 14.21 7.5 14.6 7.5 14.99C7.5 17.06 8.33 18.93 9.68 20.29C10.79 19.06 11.55 17.62 11.94 15.99C10.66 14.9 9.21 14.18 7.58 13.84ZM13.81 7.59C11.41 7.97 9.39 9.49 8.32 11.58C9.83 12.25 11.43 12.53 13.11 12.39C13.75 10.84 13.98 9.24 13.81 7.59ZM16.18 7.59C16.01 9.24 16.24 10.84 16.88 12.39C18.56 12.53 20.16 12.25 21.67 11.58C20.6 9.49 18.58 7.97 16.18 7.59ZM15 13.38C14.57 13.39 14.17 13.56 13.88 13.86C13.58 14.17 13.42 14.57 13.42 14.99C13.42 15.42 13.58 15.82 13.88 16.13C14.17 16.43 14.57 16.6 15 16.61C15.89 16.61 16.61 15.89 16.61 14.99C16.61 14.1 15.89 13.38 15 13.38ZM15 14.45C15.07 14.45 15.14 14.46 15.21 14.48C15.28 14.51 15.34 14.55 15.39 14.6C15.45 14.65 15.49 14.71 15.52 14.78C15.54 14.85 15.56 14.92 15.56 15C15.56 15.07 15.54 15.14 15.52 15.21C15.49 15.28 15.45 15.34 15.39 15.39C15.34 15.44 15.28 15.48 15.21 15.51C15.14 15.53 15.07 15.55 14.99 15.54C14.85 15.54 14.72 15.48 14.62 15.38C14.52 15.27 14.46 15.14 14.46 15C14.46 14.85 14.52 14.72 14.62 14.61C14.72 14.51 14.85 14.45 15 14.45Z" fill="#BD0808" fill-opacity="1.000000" fill-rule="evenodd"/>
</svg>
