<svg width="120.000000" height="24.000000" viewBox="0 0 120 24" fill="none" xmlns="http://www.w3.org/2000/svg" xmlns:xlink="http://www.w3.org/1999/xlink">
	<desc>
			Created with Pixso.
	</desc>
	<defs/>
	<rect id="star" rx="0.000000" width="23.000000" height="23.000000" transform="translate(0.500000 0.500000)" fill="#FFFFFF" fill-opacity="0"/>
	<path id="Star 1" d="M11.52 3.46L9.86 8.56C9.79 8.77 9.6 8.9 9.39 8.9L4.02 8.9C3.54 8.9 3.34 9.52 3.73 9.81L8.07 12.96C8.24 13.09 8.32 13.31 8.25 13.52L6.59 18.62C6.44 19.08 6.97 19.47 7.36 19.18L11.7 16.03C11.88 15.9 12.11 15.9 12.29 16.03L16.63 19.18C17.02 19.47 17.55 19.08 17.4 18.62L15.74 13.52C15.67 13.31 15.75 13.09 15.92 12.96L20.26 9.81C20.65 9.52 20.45 8.9 19.97 8.9L14.6 8.9C14.39 8.9 14.2 8.77 14.13 8.56L12.47 3.46C12.32 3 11.67 3 11.52 3.46Z" fill="#F3BE00" fill-opacity="1.000000" fill-rule="evenodd"/>
	<rect id="star" rx="0.000000" width="23.000000" height="23.000000" transform="translate(24.500000 0.500000)" fill="#FFFFFF" fill-opacity="0"/>
	<path id="Star 1" d="M35.52 3.46L33.86 8.56C33.79 8.77 33.6 8.9 33.39 8.9L28.02 8.9C27.54 8.9 27.34 9.52 27.73 9.81L32.07 12.96C32.24 13.09 32.32 13.31 32.25 13.52L30.59 18.62C30.44 19.08 30.97 19.47 31.36 19.18L35.7 16.03C35.88 15.9 36.11 15.9 36.29 16.03L40.63 19.18C41.02 19.47 41.55 19.08 41.4 18.62L39.74 13.52C39.67 13.31 39.75 13.09 39.92 12.96L44.26 9.81C44.65 9.52 44.45 8.9 43.97 8.9L38.6 8.9C38.39 8.9 38.2 8.77 38.13 8.56L36.47 3.46C36.32 3 35.67 3 35.52 3.46Z" fill="#F3BE00" fill-opacity="1.000000" fill-rule="evenodd"/>
	<rect id="star" rx="0.000000" width="23.000000" height="23.000000" transform="translate(48.500000 0.500000)" fill="#FFFFFF" fill-opacity="0"/>
	<path id="Star 1" d="M59.52 3.46L57.86 8.56C57.79 8.77 57.6 8.9 57.39 8.9L52.02 8.9C51.54 8.9 51.34 9.52 51.73 9.81L56.07 12.96C56.24 13.09 56.32 13.31 56.25 13.52L54.59 18.62C54.44 19.08 54.97 19.47 55.36 19.18L59.7 16.03C59.88 15.9 60.11 15.9 60.29 16.03L64.63 19.18C65.02 19.47 65.55 19.08 65.4 18.62L63.74 13.52C63.67 13.31 63.75 13.09 63.92 12.96L68.26 9.81C68.65 9.52 68.45 8.9 67.97 8.9L62.6 8.9C62.39 8.9 62.2 8.77 62.13 8.56L60.47 3.46C60.32 3 59.67 3 59.52 3.46Z" fill="#F3BE00" fill-opacity="1.000000" fill-rule="evenodd"/>
	<rect id="star" rx="0.000000" width="23.000000" height="23.000000" transform="translate(72.500000 0.500000)" fill="#FFFFFF" fill-opacity="0"/>
	<path id="Star 1" d="M83.52 3.46L81.86 8.56C81.79 8.77 81.6 8.9 81.39 8.9L76.02 8.9C75.54 8.9 75.34 9.52 75.73 9.81L80.07 12.96C80.24 13.09 80.32 13.31 80.25 13.52L78.59 18.62C78.44 19.08 78.97 19.47 79.36 19.18L83.7 16.03C83.88 15.9 84.11 15.9 84.29 16.03L88.63 19.18C89.02 19.47 89.55 19.08 89.4 18.62L87.74 13.52C87.67 13.31 87.75 13.09 87.92 12.96L92.26 9.81C92.65 9.52 92.45 8.9 91.97 8.9L86.6 8.9C86.39 8.9 86.2 8.77 86.13 8.56L84.47 3.46C84.32 3 83.67 3 83.52 3.46Z" fill="#F3BE00" fill-opacity="1.000000" fill-rule="evenodd"/>
	<rect id="star" rx="0.000000" width="23.000000" height="23.000000" transform="translate(96.500000 0.500000)" fill="#FFFFFF" fill-opacity="0"/>
	<path id="Star 1" d="M107.52 3.46L105.86 8.56C105.8 8.77 105.6 8.9 105.39 8.9L100.02 8.9C99.54 8.9 99.34 9.52 99.73 9.81L104.07 12.96C104.24 13.09 104.32 13.31 104.25 13.52L102.59 18.62C102.44 19.08 102.97 19.47 103.36 19.18L107.7 16.03C107.88 15.9 108.11 15.9 108.29 16.03L112.63 19.18C113.02 19.47 113.55 19.08 113.4 18.62L111.74 13.52C111.67 13.31 111.75 13.09 111.92 12.96L116.26 9.81C116.65 9.52 116.45 8.9 115.97 8.9L110.6 8.9C110.39 8.9 110.2 8.77 110.13 8.56L108.47 3.46C108.32 3 107.67 3 107.52 3.46Z" fill="#BFBFBF" fill-opacity="1.000000" fill-rule="evenodd"/>
</svg>
