<svg width="35.000000" height="35.000000" viewBox="0 0 35 35" fill="none" xmlns="http://www.w3.org/2000/svg" xmlns:xlink="http://www.w3.org/1999/xlink">
	<desc>
			Created with Pixso.
	</desc>
	<defs/>
	<circle id="Ellipse 409" cx="17.500000" cy="17.500000" r="17.500000" fill="#E9E9E9" fill-opacity="1.000000"/>
	<path id="Vector" d="M29.74 24.15L25.83 20.24L26.6 19.68C26.97 19.41 27.24 19.03 27.38 18.6C27.53 18.17 27.52 17.7 27.38 17.27L26.86 15.65C26.8 15.48 26.8 15.3 26.86 15.13L27.38 13.5C27.52 13.07 27.53 12.61 27.38 12.17C27.24 11.74 26.97 11.37 26.6 11.1L25.22 10.1C25.08 9.99 24.97 9.84 24.91 9.67L24.39 8.05C24.25 7.62 23.97 7.24 23.61 6.98C23.24 6.71 22.8 6.56 22.34 6.57L20.64 6.57C20.46 6.57 20.28 6.51 20.14 6.4L18.76 5.4C18.39 5.13 17.95 4.99 17.49 4.99C17.04 4.99 16.6 5.13 16.23 5.4L14.85 6.4C14.71 6.51 14.53 6.57 14.35 6.57L12.65 6.57C12.19 6.56 11.75 6.71 11.38 6.98C11.01 7.24 10.74 7.62 10.6 8.05L10.07 9.67C10.02 9.84 9.91 9.99 9.77 10.1L8.39 11.1C8.02 11.37 7.74 11.74 7.6 12.17C7.46 12.61 7.46 13.07 7.61 13.5L8.13 15.13C8.19 15.3 8.19 15.48 8.13 15.65L7.61 17.27C7.46 17.7 7.46 18.17 7.6 18.6C7.74 19.03 8.02 19.41 8.39 19.68L9.16 20.24L5.25 24.15C5.17 24.23 5.11 24.32 5.08 24.42C5.05 24.53 5.05 24.64 5.07 24.74C5.09 24.85 5.14 24.95 5.21 25.03C5.28 25.11 5.37 25.18 5.47 25.22L8.61 26.45L9.84 29.59C9.88 29.69 9.94 29.78 10.03 29.85C10.11 29.92 10.21 29.96 10.31 29.99C10.42 30.01 10.53 30 10.63 29.97C10.74 29.94 10.83 29.89 10.91 29.81L15.72 25L16.23 25.38C16.6 25.64 17.04 25.79 17.49 25.79C17.95 25.79 18.39 25.64 18.76 25.38L19.27 25L24.08 29.81C24.16 29.89 24.25 29.94 24.36 29.97C24.46 30 24.57 30.01 24.68 29.99C24.78 29.97 24.88 29.92 24.96 29.85C25.04 29.78 25.11 29.69 25.15 29.59L26.38 26.45L29.52 25.22C29.62 25.18 29.71 25.11 29.78 25.03C29.85 24.95 29.9 24.85 29.92 24.74C29.94 24.64 29.94 24.53 29.91 24.42C29.87 24.32 29.82 24.23 29.74 24.15ZM10.69 28.19L9.72 25.71C9.69 25.62 9.64 25.55 9.57 25.48C9.51 25.42 9.43 25.37 9.35 25.34L6.87 24.37L10.09 21.15L10.6 22.73C10.74 23.16 11.01 23.53 11.38 23.8C11.75 24.07 12.19 24.21 12.65 24.21L14.35 24.21C14.45 24.21 14.54 24.23 14.62 24.26L10.69 28.19ZM17 24.32L15.62 23.32C15.25 23.05 14.81 22.91 14.35 22.91L12.65 22.91C12.47 22.91 12.29 22.85 12.15 22.75C12 22.64 11.89 22.49 11.84 22.32L11.31 20.7C11.18 20.29 10.92 19.93 10.58 19.66C10.57 19.65 10.55 19.64 10.54 19.64C10.54 19.63 10.54 19.63 10.53 19.63L9.15 18.62C9.01 18.52 8.9 18.37 8.84 18.2C8.79 18.03 8.79 17.85 8.84 17.68L9.37 16.05C9.51 15.62 9.51 15.16 9.37 14.72L8.84 13.1C8.79 12.93 8.79 12.75 8.84 12.58C8.9 12.41 9.01 12.26 9.15 12.15L10.53 11.15C10.9 10.88 11.17 10.51 11.31 10.08L11.84 8.45C11.89 8.28 12 8.13 12.15 8.03C12.29 7.92 12.47 7.87 12.65 7.87L14.35 7.87C14.81 7.87 15.25 7.72 15.62 7.46L17 6.45C17.14 6.35 17.32 6.29 17.49 6.29C17.67 6.29 17.85 6.35 17.99 6.45L19.37 7.46C19.74 7.72 20.18 7.87 20.64 7.87L22.34 7.87C22.52 7.87 22.7 7.92 22.84 8.03C22.99 8.13 23.09 8.28 23.15 8.45L23.68 10.08C23.82 10.51 24.09 10.88 24.46 11.15L25.84 12.15C25.98 12.26 26.09 12.41 26.15 12.58C26.2 12.75 26.2 12.93 26.15 13.1L25.62 14.72C25.48 15.16 25.48 15.62 25.62 16.05L26.15 17.68C26.2 17.85 26.2 18.03 26.15 18.2C26.09 18.37 25.98 18.52 25.84 18.62L24.46 19.63C24.45 19.63 24.45 19.63 24.44 19.64C24.43 19.65 24.42 19.65 24.41 19.66C24.07 19.93 23.81 20.29 23.68 20.7L23.15 22.32C23.09 22.49 22.99 22.64 22.84 22.75C22.7 22.85 22.52 22.91 22.34 22.91L20.64 22.91C20.18 22.91 19.74 23.05 19.37 23.32L17.99 24.32C17.85 24.43 17.67 24.49 17.49 24.49C17.32 24.49 17.14 24.43 17 24.32ZM25.64 25.34C25.55 25.37 25.48 25.42 25.42 25.48C25.35 25.55 25.3 25.62 25.27 25.71L24.3 28.19L20.37 24.26C20.45 24.23 20.54 24.21 20.64 24.21L22.34 24.21C22.8 24.21 23.24 24.07 23.61 23.8C23.97 23.53 24.25 23.16 24.39 22.73L24.9 21.15L28.12 24.37L25.64 25.34Z" fill="#AFAFAF" fill-opacity="1.000000" fill-rule="nonzero"/>
	<path id="Vector" d="M20.5 20.21C20.6 20.21 20.69 20.19 20.78 20.15C20.86 20.11 20.94 20.06 21 19.98C21.06 19.91 21.11 19.83 21.13 19.73C21.16 19.64 21.16 19.55 21.14 19.45L20.63 16.44L22.82 14.31C22.9 14.22 22.97 14.11 23 14C23.02 13.88 23.02 13.76 22.98 13.64C22.94 13.52 22.87 13.42 22.78 13.34C22.69 13.27 22.58 13.21 22.46 13.2L19.43 12.76L18.08 10.02C18.02 9.91 17.94 9.82 17.84 9.75C17.74 9.69 17.62 9.65 17.5 9.65C17.37 9.65 17.25 9.69 17.15 9.75C17.05 9.82 16.96 9.91 16.91 10.02L15.56 12.76L12.53 13.2C12.41 13.21 12.3 13.27 12.21 13.34C12.11 13.42 12.04 13.52 12.01 13.64C11.97 13.76 11.97 13.88 11.99 14C12.02 14.11 12.08 14.22 12.17 14.31L14.36 16.44L13.84 19.45C13.82 19.57 13.84 19.7 13.88 19.81C13.93 19.92 14 20.02 14.1 20.09C14.2 20.16 14.32 20.2 14.44 20.21C14.56 20.22 14.68 20.2 14.79 20.14L17.49 18.72L20.2 20.14C20.29 20.19 20.4 20.21 20.5 20.21ZM17.8 17.41C17.7 17.36 17.6 17.33 17.49 17.33C17.39 17.33 17.29 17.36 17.19 17.41L15.35 18.37L15.7 16.32C15.72 16.22 15.71 16.11 15.68 16.01C15.65 15.91 15.59 15.82 15.51 15.75L14.02 14.3L16.08 14C16.19 13.98 16.29 13.94 16.37 13.88C16.46 13.82 16.53 13.73 16.57 13.64L17.49 11.77L18.42 13.64C18.46 13.73 18.53 13.82 18.62 13.88C18.7 13.94 18.8 13.98 18.91 14L20.96 14.3L19.47 15.75C19.4 15.82 19.34 15.91 19.31 16.01C19.28 16.11 19.27 16.22 19.29 16.32L19.64 18.37L17.8 17.41Z" fill="#AFAFAF" fill-opacity="1.000000" fill-rule="nonzero"/>
</svg>
