<svg width="35.000000" height="35.000000" viewBox="0 0 35 35" fill="none" xmlns="http://www.w3.org/2000/svg" xmlns:xlink="http://www.w3.org/1999/xlink">
	<desc>
			Created with Pixso.
	</desc>
	<defs>
		<clipPath id="clip47_4067">
			<rect id="Frame 81742187" rx="0.000000" width="24.000000" height="24.000149" transform="translate(5.500000 5.500000)" fill="white" fill-opacity="0"/>
		</clipPath>
	</defs>
	<rect id="гарантия" rx="0.000000" width="34.000000" height="34.000000" transform="translate(0.500000 0.500000)" fill="#FFFFFF" fill-opacity="0"/>
	<circle id="Ellipse 69" cx="17.500000" cy="17.500000" r="17.500000" fill="#E9E9E9" fill-opacity="1.000000"/>
	<g clip-path="url(#clip47_4067)">
		<path id="Vector (Stroke)" d="M27.99 10.7C28.02 12.75 27.94 16.08 27.2 18.78C25.79 23.99 22.83 27.66 18.59 29.47C18.18 29.65 17.75 29.8 17.31 29.95L17.15 30L17 29.98L16.99 29.98L16.84 30L16.68 29.95C16.24 29.8 15.81 29.64 15.39 29.46C11.16 27.66 8.2 23.99 6.79 18.78C6.05 16.08 5.97 12.75 6 10.7C6 10.69 6 10.69 6 10.68C6.01 10.37 6.01 10.09 6.02 9.84C6.03 9.74 6.05 9.64 6.1 9.55C6.15 9.46 6.22 9.39 6.31 9.34C6.39 9.29 6.49 9.26 6.58 9.26C6.68 9.26 6.77 9.29 6.85 9.34C7.6 9.81 8.76 10.42 9.79 10.42C10.25 10.42 10.73 10.35 11.22 10.19C11.53 10.09 11.83 9.96 12.12 9.81L12.12 9.81C13.6 9.05 14.97 7.69 16.22 6.34C16.43 6.12 16.7 6 17 6C17.29 6 17.56 6.12 17.77 6.34C19.02 7.69 20.39 9.05 21.87 9.81C22.16 9.96 22.46 10.09 22.77 10.19C23.26 10.35 23.74 10.42 24.2 10.42C25.23 10.42 26.39 9.82 27.14 9.34C27.22 9.29 27.31 9.26 27.41 9.26C27.5 9.26 27.6 9.29 27.68 9.34C27.77 9.39 27.84 9.46 27.89 9.55C27.94 9.64 27.96 9.74 27.97 9.84C27.98 10.09 27.98 10.37 27.99 10.68C27.99 10.69 27.99 10.69 27.99 10.69C27.99 10.7 27.99 10.7 27.99 10.7ZM22.28 11.71C21.89 11.58 21.51 11.43 21.15 11.24L21.14 11.24C19.56 10.42 18.17 9.09 17 7.86C15.83 9.09 14.43 10.42 12.85 11.24L12.51 11.41L12.48 11.41C12.23 11.53 11.97 11.62 11.71 11.71C11.08 11.92 10.43 12.02 9.79 12.02C9.02 12.02 8.26 11.81 7.6 11.54C7.6 13.5 7.74 16.19 8.33 18.36C9.75 23.58 12.77 26.94 17 28.36C21.22 26.94 24.24 23.58 25.66 18.36C26.25 16.19 26.39 13.51 26.39 11.54C25.73 11.81 24.97 12.02 24.2 12.02C23.56 12.02 22.91 11.92 22.28 11.71Z" fill="#AFAFAF" fill-opacity="1.000000" fill-rule="evenodd"/>
		<path id="Vector 74 (Stroke)" d="M22.56 13.43C22.87 13.74 22.87 14.25 22.56 14.56L15.87 21.26L11.43 16.82C11.12 16.51 11.12 16 11.43 15.69C11.74 15.37 12.25 15.37 12.56 15.69L15.87 18.99L21.43 13.43C21.74 13.12 22.25 13.12 22.56 13.43Z" fill="#AFAFAF" fill-opacity="1.000000" fill-rule="evenodd"/>
	</g>
</svg>
