<svg width="30.000000" height="30.000000" viewBox="0 0 30 30" fill="none" xmlns="http://www.w3.org/2000/svg" xmlns:xlink="http://www.w3.org/1999/xlink">
	<desc>
			Created with Pixso.
	</desc>
	<defs/>
	<path id="Vector" d="M28.08 14.1L29.9 13.92C29.76 11.95 29.25 10.12 28.45 8.48L26.72 9.23L25.84 7.68L27.33 6.56C26.26 5.01 24.9 3.65 23.36 2.57L22.24 4.12L20.7 3.23L21.44 1.5C19.81 0.65 17.99 0.14 16.07 0L15.84 1.87L14.06 1.87L13.83 0C11.91 0.14 10.09 0.65 8.41 1.45L9.15 3.18L7.61 4.07L6.49 2.57C4.9 3.65 3.59 5.01 2.52 6.56L4.01 7.68L3.13 9.23L1.4 8.48C0.65 10.12 0.14 11.95 0 13.92L1.82 14.1L1.82 15.89L0 16.12C0.14 18.04 0.65 19.87 1.44 21.56L3.17 20.81L4.06 22.35L2.57 23.48C3.64 25.07 4.95 26.39 6.54 27.46L7.66 25.92L9.2 26.81L8.45 28.54C10.09 29.34 11.91 29.85 13.87 30L14.11 28.17L15.88 28.17L16.12 30C18.03 29.85 19.85 29.34 21.54 28.54L20.79 26.81L22.33 25.92L23.45 27.46C25 26.39 26.35 25.03 27.42 23.48L25.93 22.35L26.82 20.81L28.55 21.56C29.34 19.87 29.85 18.04 30 16.12L28.17 15.89L28.17 14.1L28.08 14.1ZM14.95 24.37C9.81 24.37 5.6 20.15 5.6 15C5.6 9.84 9.81 5.62 14.95 5.62C20.09 5.62 24.29 9.84 24.29 15C24.29 20.15 20.09 24.37 14.95 24.37Z" fill="#2898FF" fill-opacity="1.000000" fill-rule="nonzero"/>
	<path id="Vector" d="M22.76 16.16C22.89 16.48 22.74 16.85 22.41 16.98L20.68 17.69L22.29 18.66C22.59 18.83 22.69 19.22 22.52 19.52C22.35 19.82 21.96 19.92 21.66 19.75C21.66 19.75 21.65 19.74 21.64 19.74L20.03 18.77L20.22 20.64C20.25 20.99 20 21.29 19.65 21.32C19.32 21.35 19.02 21.1 18.98 20.77L18.69 17.96L15.62 16.1L15.62 19.7L17.87 21.4C18.14 21.61 18.2 22 17.99 22.28C17.79 22.55 17.39 22.61 17.12 22.4L15.62 21.27L15.62 23.16C15.62 23.5 15.33 23.78 14.99 23.78C14.64 23.78 14.36 23.5 14.36 23.16L14.36 21.27L12.86 22.4C12.58 22.61 12.19 22.55 11.99 22.28C11.78 22 11.83 21.61 12.11 21.4L14.36 19.7L14.36 16.1L11.29 17.96L11 20.77C10.97 21.11 10.67 21.37 10.32 21.34C9.98 21.31 9.72 21.01 9.75 20.66C9.75 20.65 9.75 20.65 9.76 20.64L9.95 18.77L8.34 19.74C8.05 19.92 7.66 19.83 7.47 19.54C7.29 19.25 7.38 18.86 7.67 18.67C7.68 18.67 7.69 18.67 7.69 18.66L9.3 17.69L7.56 16.98C7.25 16.85 7.1 16.48 7.23 16.16C7.37 15.85 7.72 15.7 8.04 15.82L10.64 16.88L13.77 14.99L10.64 13.11L8.04 14.17C7.71 14.3 7.35 14.14 7.23 13.81C7.1 13.5 7.25 13.14 7.56 13.01L9.3 12.3L7.69 11.33C7.39 11.16 7.29 10.77 7.46 10.47C7.63 10.17 8.01 10.07 8.31 10.24C8.32 10.24 8.33 10.25 8.34 10.25L9.95 11.22L9.75 9.35C9.72 9.01 9.97 8.7 10.31 8.66C10.66 8.63 10.96 8.88 11 9.22L11.29 12.03L14.36 13.89L14.36 10.29L12.11 8.59C11.83 8.38 11.78 7.99 11.99 7.71C12.19 7.44 12.58 7.38 12.86 7.59L12.86 7.59L14.36 8.72L14.36 6.83C14.36 6.49 14.64 6.21 14.99 6.21C15.33 6.21 15.62 6.49 15.62 6.83L15.62 8.72L17.12 7.59C17.39 7.38 17.79 7.44 17.99 7.71C18.2 7.99 18.14 8.38 17.87 8.59L15.62 10.29L15.62 13.89L18.69 12.03L18.98 9.22C19.02 8.88 19.33 8.63 19.67 8.67C20.01 8.71 20.25 9.01 20.22 9.35L20.03 11.22L21.64 10.25C21.93 10.07 22.32 10.16 22.5 10.45C22.69 10.74 22.6 11.13 22.31 11.32C22.3 11.32 22.29 11.33 22.29 11.33L20.68 12.3L22.41 13.01C22.73 13.14 22.88 13.51 22.75 13.83C22.61 14.14 22.26 14.29 21.94 14.17L19.33 13.11L16.2 15L19.33 16.88L21.94 15.82C22.26 15.69 22.63 15.84 22.76 16.16L22.76 16.16Z" fill="#2898FF" fill-opacity="1.000000" fill-rule="nonzero"/>
</svg>
